<?xml version="1.0" encoding="UTF-8"?>
<!DOCTYPE svg PUBLIC "-//W3C//DTD SVG 1.1//EN" "http://www.w3.org/Graphics/SVG/1.1/DTD/svg11.dtd">
<svg xmlns="http://www.w3.org/2000/svg" version="1.1" width="1080px" height="1080px" style="shape-rendering:geometricPrecision; text-rendering:geometricPrecision; image-rendering:optimizeQuality; fill-rule:evenodd; clip-rule:evenodd" xmlns:xlink="http://www.w3.org/1999/xlink">
<g><path style="opacity:1" fill="#fefefe" d="M -0.5,-0.5 C 359.5,-0.5 719.5,-0.5 1079.5,-0.5C 1079.5,359.5 1079.5,719.5 1079.5,1079.5C 719.5,1079.5 359.5,1079.5 -0.5,1079.5C -0.5,719.5 -0.5,359.5 -0.5,-0.5 Z"/></g>
<g><path style="opacity:1" fill="#0f0f0f" d="M 745.5,419.5 C 745.5,496.5 745.5,573.5 745.5,650.5C 744.523,647.713 744.19,644.713 744.5,641.5C 626.833,641.5 509.167,641.5 391.5,641.5C 391.5,567.167 391.5,492.833 391.5,418.5C 392.591,415.572 394.591,413.406 397.5,412C 511.167,411.333 624.833,411.333 738.5,412C 742.418,413.083 744.752,415.583 745.5,419.5 Z"/></g>
<g><path style="opacity:1" fill="#998e0a" d="M 405.5,419.5 C 406.5,419.5 407.5,419.5 408.5,419.5C 408.5,421.167 408.5,422.833 408.5,424.5C 407.5,424.5 406.5,424.5 405.5,424.5C 408.167,422.833 408.167,421.167 405.5,419.5 Z"/></g>
<g><path style="opacity:1" fill="#857a15" d="M 403.5,419.5 C 403.5,421.167 403.5,422.833 403.5,424.5C 402.5,424.5 401.5,424.5 400.5,424.5C 400.657,423.127 400.49,421.793 400,420.5C 399.333,421.833 398.667,421.833 398,420.5C 396.961,421.244 396.461,422.244 396.5,423.5C 395.314,422.295 395.314,420.961 396.5,419.5C 398.998,418.918 401.331,418.918 403.5,419.5 Z"/></g>
<g><path style="opacity:1" fill="#484118" d="M 403.5,419.5 C 404.167,419.5 404.833,419.5 405.5,419.5C 408.167,421.167 408.167,422.833 405.5,424.5C 404.833,424.5 404.167,424.5 403.5,424.5C 403.5,422.833 403.5,421.167 403.5,419.5 Z"/></g>
<g><path style="opacity:1" fill="#8c810d" d="M 396.5,424.5 C 396.5,424.167 396.5,423.833 396.5,423.5C 397.767,422.913 398.767,422.913 399.5,423.5C 398.675,424.386 397.675,424.719 396.5,424.5 Z"/></g>
<g><path style="opacity:1" fill="#131318" d="M 740.5,553.5 C 740.725,548.752 740.225,544.085 739,539.5C 737.692,542.73 736.692,546.064 736,549.5C 735.641,546.456 734.974,546.122 734,548.5C 733.814,551.036 733.314,553.369 732.5,555.5C 732.5,552.167 732.5,548.833 732.5,545.5C 733.01,542.612 732.344,540.279 730.5,538.5C 730.5,536.167 730.5,533.833 730.5,531.5C 730.611,525.273 729.611,519.273 727.5,513.5C 726.034,517.064 724.868,520.73 724,524.5C 722.956,523.377 722.29,522.044 722,520.5C 720.249,522.49 719.249,524.823 719,527.5C 718.667,532.167 718.333,536.833 718,541.5C 717.252,543.332 716.252,544.999 715,546.5C 714.082,553.512 713.082,560.512 712,567.5C 711.751,568.624 711.251,569.624 710.5,570.5C 709.365,568.293 708.699,565.96 708.5,563.5C 705.918,563.025 703.918,563.692 702.5,565.5C 700.787,566.635 700.12,568.302 700.5,570.5C 699.5,570.5 698.5,570.5 697.5,570.5C 696.864,562.7 695.531,562.533 693.5,570C 690.905,569.869 688.405,570.036 686,570.5C 685.394,573.43 684.56,576.263 683.5,579C 681.193,579.271 680.026,578.105 680,575.5C 677.636,577.363 675.136,579.029 672.5,580.5C 669.718,580.063 667.051,580.063 664.5,580.5C 663.18,582.651 661.68,584.651 660,586.5C 659.107,585.289 658.274,585.289 657.5,586.5C 656.194,587.912 655.36,589.579 655,591.5C 651.17,586.842 649.67,587.509 650.5,593.5C 649.07,593.579 647.736,593.246 646.5,592.5C 645.212,588.966 643.546,585.633 641.5,582.5C 640.079,586.103 638.245,589.437 636,592.5C 634.13,588.836 632.63,585.002 631.5,581C 627.175,578.99 622.842,578.157 618.5,578.5C 618.509,576.692 618.009,575.025 617,573.5C 616.578,575.426 615.411,576.426 613.5,576.5C 614.755,568.514 612.922,567.18 608,572.5C 607.586,572.043 607.086,571.709 606.5,571.5C 605.805,575.704 603.471,577.871 599.5,578C 598.686,574.522 597.352,571.355 595.5,568.5C 593.602,571.457 590.935,573.457 587.5,574.5C 586.469,575.7 585.635,577.034 585,578.5C 584.168,573.601 582.834,569.601 581,566.5C 580.125,574.161 579.292,581.827 578.5,589.5C 577.094,590.668 575.928,590.335 575,588.5C 574.667,589.167 574.333,589.833 574,590.5C 573.581,589.328 572.915,588.328 572,587.5C 571.023,589.74 570.523,592.073 570.5,594.5C 569.167,594.5 567.833,594.5 566.5,594.5C 566.553,591.939 565.553,589.939 563.5,588.5C 560.114,590.385 557.614,593.051 556,596.5C 555.89,593.354 554.557,592.354 552,593.5C 549.537,590.654 548.037,587.32 547.5,583.5C 546.675,587.122 546.175,590.789 546,594.5C 545.282,593.549 544.449,593.383 543.5,594C 542.044,595.745 540.711,597.578 539.5,599.5C 538.123,595.911 536.956,592.245 536,588.5C 535.779,591.943 534.779,592.276 533,589.5C 532.023,591.74 531.523,594.073 531.5,596.5C 530.5,596.5 529.5,596.5 528.5,596.5C 528.66,594.801 528.494,593.134 528,591.5C 526.394,588.41 524.727,586.077 523,584.5C 520.505,588.485 519.338,592.818 519.5,597.5C 518.21,598.058 517.377,599.058 517,600.5C 516.667,600.167 516.333,599.833 516,599.5C 514.956,601.715 514.29,604.048 514,606.5C 512.197,602.488 511.197,602.822 511,607.5C 509.282,600.732 507.448,594.065 505.5,587.5C 504.77,585.955 503.437,585.122 501.5,585C 502.563,583.812 503.897,583.312 505.5,583.5C 505.5,579.5 505.5,575.5 505.5,571.5C 501.5,571.167 501.5,570.833 505.5,570.5C 505.5,566.5 505.5,562.5 505.5,558.5C 501.757,558.541 501.59,557.874 505,556.5C 505.667,552.833 505.667,549.167 505,545.5C 501.59,544.126 501.757,543.459 505.5,543.5C 505.5,539.833 505.5,536.167 505.5,532.5C 501.5,531.833 501.5,531.167 505.5,530.5C 505.665,526.818 505.499,523.152 505,519.5C 501.59,518.126 501.757,517.459 505.5,517.5C 505.5,513.5 505.5,509.5 505.5,505.5C 581.804,504.5 660.138,504.167 740.5,504.5C 740.5,482.167 740.5,459.833 740.5,437.5C 625.5,437.5 510.5,437.5 395.5,437.5C 395.182,432.968 395.515,428.634 396.5,424.5C 397.675,424.719 398.675,424.386 399.5,423.5C 398.767,422.913 397.767,422.913 396.5,423.5C 396.461,422.244 396.961,421.244 398,420.5C 398.667,421.833 399.333,421.833 400,420.5C 400.49,421.793 400.657,423.127 400.5,424.5C 401.5,424.5 402.5,424.5 403.5,424.5C 404.167,424.5 404.833,424.5 405.5,424.5C 406.5,424.5 407.5,424.5 408.5,424.5C 408.5,422.833 408.5,421.167 408.5,419.5C 407.5,419.5 406.5,419.5 405.5,419.5C 404.833,419.5 404.167,419.5 403.5,419.5C 401.331,418.918 398.998,418.918 396.5,419.5C 396.414,418.504 396.748,417.671 397.5,417C 448.166,416.5 498.832,416.333 549.5,416.5C 549.244,418.792 549.577,420.959 550.5,423C 562.5,423.667 574.5,423.667 586.5,423C 587.423,420.959 587.756,418.792 587.5,416.5C 637.834,416.333 688.168,416.5 738.5,417C 739.333,417.833 740.167,418.667 741,419.5C 741.831,464.335 741.665,509.002 740.5,553.5 Z"/></g>
<g><path style="opacity:1" fill="#a29409" d="M 409.5,419.5 C 410.833,419.5 412.167,419.5 413.5,419.5C 413.653,425.324 412.987,425.657 411.5,420.5C 410.013,425.657 409.347,425.324 409.5,419.5 Z"/></g>
<g><path style="opacity:1" fill="#14141a" d="M 395.5,437.5 C 510.5,437.5 625.5,437.5 740.5,437.5C 740.5,459.833 740.5,482.167 740.5,504.5C 660.138,504.167 581.804,504.5 505.5,505.5C 505.5,509.5 505.5,513.5 505.5,517.5C 501.757,517.459 501.59,518.126 505,519.5C 505.499,523.152 505.665,526.818 505.5,530.5C 501.5,531.167 501.5,531.833 505.5,532.5C 505.5,536.167 505.5,539.833 505.5,543.5C 501.757,543.459 501.59,544.126 505,545.5C 505.667,549.167 505.667,552.833 505,556.5C 501.59,557.874 501.757,558.541 505.5,558.5C 505.5,562.5 505.5,566.5 505.5,570.5C 501.5,570.833 501.5,571.167 505.5,571.5C 505.5,575.5 505.5,579.5 505.5,583.5C 503.897,583.312 502.563,583.812 501.5,585C 503.437,585.122 504.77,585.955 505.5,587.5C 506.993,594.41 507.659,601.41 507.5,608.5C 508.5,608.5 509.5,608.5 510.5,608.5C 510.215,610.288 510.548,611.955 511.5,613.5C 514.398,608.249 517.065,602.915 519.5,597.5C 520.743,595.036 521.743,592.37 522.5,589.5C 523.541,591.991 524.374,591.991 525,589.5C 527.105,592.107 527.938,595.107 527.5,598.5C 529.167,598.5 530.833,598.5 532.5,598.5C 532.231,596.571 532.731,594.905 534,593.5C 536.406,596.011 538.072,599.011 539,602.5C 539.667,601.167 540.333,601.167 541,602.5C 541.973,600.608 542.64,598.608 543,596.5C 544.008,596.018 545.175,595.852 546.5,596C 547.071,594.795 547.738,593.628 548.5,592.5C 550.179,593.782 552.013,594.782 554,595.5C 555.044,597.715 555.71,600.048 556,602.5C 557.296,599.049 558.796,595.715 560.5,592.5C 561.274,591.289 562.107,591.289 563,592.5C 563.333,591.833 563.667,591.167 564,590.5C 565.044,592.715 565.71,595.048 566,597.5C 567.356,598.38 568.856,598.714 570.5,598.5C 570.755,595.984 571.589,593.65 573,591.5C 574.512,592.257 575.846,593.257 577,594.5C 580.316,588.678 581.983,582.345 582,575.5C 583.08,577.996 584.414,580.33 586,582.5C 586.346,580.782 586.846,579.115 587.5,577.5C 589.747,576.755 591.58,575.422 593,573.5C 593.333,574.167 593.667,574.833 594,575.5C 594.667,574.167 595.333,572.833 596,571.5C 596.183,576.203 598.183,579.87 602,582.5C 603.884,579.556 605.384,576.556 606.5,573.5C 607.93,573.421 609.264,573.754 610.5,574.5C 611.192,573.975 611.692,573.308 612,572.5C 612.21,574.058 612.71,575.391 613.5,576.5C 613.369,577.376 613.702,578.043 614.5,578.5C 615.865,577.193 617.198,577.193 618.5,578.5C 619.41,582.985 621.577,583.652 625,580.5C 627.034,581.862 629.201,582.862 631.5,583.5C 631.717,587.985 633.217,591.985 636,595.5C 637.769,592.281 639.769,589.281 642,586.5C 642.792,591.296 645.459,594.63 650,596.5C 650.918,594.368 652.251,593.701 654,594.5C 656.761,593.501 658.094,591.501 658,588.5C 661.104,587.336 663.604,585.336 665.5,582.5C 667.367,585.229 668.367,584.896 668.5,581.5C 672.084,582.765 675.417,582.099 678.5,579.5C 679.941,580.304 681.441,580.971 683,581.5C 685.637,578.758 686.804,575.425 686.5,571.5C 688.124,571.36 689.29,572.027 690,573.5C 693.002,573.003 695.002,571.337 696,568.5C 696.278,569.416 696.778,570.082 697.5,570.5C 697.843,572.225 698.843,572.725 700.5,572C 701.669,569.993 702.335,567.827 702.5,565.5C 703.936,565.245 705.436,564.912 707,564.5C 707.376,567.975 708.709,570.975 711,573.5C 711.333,573.167 711.667,572.833 712,572.5C 712.333,574.5 712.667,576.5 713,578.5C 713.998,571.533 714.664,564.533 715,557.5C 715.554,552.284 716.887,547.284 719,542.5C 719.352,536.362 720.352,530.362 722,524.5C 723,526.167 724,527.833 725,529.5C 725.346,526.424 726.012,523.424 727,520.5C 727.333,520.833 727.667,521.167 728,521.5C 728.173,527.016 728.673,532.349 729.5,537.5C 729.812,543.879 730.479,550.212 731.5,556.5C 731.678,559.216 732.178,561.883 733,564.5C 734.294,559.008 735.961,553.675 738,548.5C 738.433,552.324 739.599,555.657 741.5,558.5C 741.5,582.833 741.5,607.167 741.5,631.5C 740.527,629.052 740.194,626.385 740.5,623.5C 739.5,623.5 738.5,623.5 737.5,623.5C 737.541,627.243 736.874,627.41 735.5,624C 733.167,623.333 730.833,623.333 728.5,624C 729.089,627.346 728.422,627.346 726.5,624C 724.527,623.505 722.527,623.338 720.5,623.5C 719.833,627.5 719.167,627.5 718.5,623.5C 716.5,623.5 714.5,623.5 712.5,623.5C 711.833,627.5 711.167,627.5 710.5,623.5C 707.092,622.828 704.425,623.828 702.5,626.5C 699.582,623.887 696.749,623.887 694,626.5C 691.333,623.833 688.667,623.833 686,626.5C 682.958,623.918 679.958,623.918 677,626.5C 674.251,623.887 671.418,623.887 668.5,626.5C 665.636,623.898 662.803,623.898 660,626.5C 657.251,623.887 654.418,623.887 651.5,626.5C 648.5,623.833 645.5,623.833 642.5,626.5C 639.582,623.887 636.749,623.887 634,626.5C 631.894,624.709 629.394,624.042 626.5,624.5C 626.439,626.592 625.439,628.092 623.5,629C 623.833,629.333 624.167,629.667 624.5,630C 620.603,630.807 619.937,632.474 622.5,635C 621.328,635.353 620.162,635.187 619,634.5C 617.69,635.13 616.856,636.13 616.5,637.5C 567.115,638.175 517.448,638.175 467.5,637.5C 466.833,380.167 466.167,380.167 465.5,637.5C 442.167,637.5 418.833,637.5 395.5,637.5C 395.5,618.5 395.5,599.5 395.5,580.5C 396.467,581.806 397.801,582.473 399.5,582.5C 399.5,581.5 399.5,580.5 399.5,579.5C 398.167,579.5 396.833,579.5 395.5,579.5C 395.5,566.833 395.5,554.167 395.5,541.5C 398.253,544.063 400.92,544.063 403.5,541.5C 401.604,540.534 399.604,540.201 397.5,540.5C 397.286,538.856 397.62,537.356 398.5,536C 400.313,536.046 401.979,535.88 403.5,535.5C 401.168,533.225 398.502,532.892 395.5,534.5C 395.5,529.167 395.5,523.833 395.5,518.5C 426.018,516.813 439.185,500.813 435,470.5C 429.551,455.853 419.051,447.519 403.5,445.5C 401.052,444.527 398.385,444.194 395.5,444.5C 395.5,442.167 395.5,439.833 395.5,437.5 Z"/></g>
<g><path style="opacity:1" fill="#fa9206" d="M 403.5,445.5 C 419.051,447.519 429.551,455.853 435,470.5C 439.185,500.813 426.018,516.813 395.5,518.5C 395.5,511.167 395.5,503.833 395.5,496.5C 396.239,496.369 396.906,496.536 397.5,497C 396.577,499.041 396.244,501.208 396.5,503.5C 400.068,503.241 401.401,501.241 400.5,497.5C 411.073,500.079 415.907,496.079 415,485.5C 413.978,484.646 413.145,483.646 412.5,482.5C 416.08,480.064 417.246,476.73 416,472.5C 413.748,469.971 411.248,467.804 408.5,466C 409.233,464.234 409.567,462.401 409.5,460.5C 408.167,460.5 406.833,460.5 405.5,460.5C 406.244,463.95 404.91,465.616 401.5,465.5C 401.993,463.194 402.326,460.861 402.5,458.5C 401.167,458.5 399.833,458.5 398.5,458.5C 398.66,460.199 398.494,461.866 398,463.5C 397.329,464.252 396.496,464.586 395.5,464.5C 395.5,458.167 395.5,451.833 395.5,445.5C 398.167,445.5 400.833,445.5 403.5,445.5 Z"/></g>
<g><path style="opacity:1" fill="#fefaf5" d="M 395.5,496.5 C 395.5,494.833 395.5,493.167 395.5,491.5C 398.799,492.376 402.132,492.543 405.5,492C 408.167,489.667 408.167,487.333 405.5,485C 400.07,480.895 396.737,482.062 395.5,488.5C 395.5,480.5 395.5,472.5 395.5,464.5C 396.496,464.586 397.329,464.252 398,463.5C 398.494,461.866 398.66,460.199 398.5,458.5C 399.833,458.5 401.167,458.5 402.5,458.5C 402.326,460.861 401.993,463.194 401.5,465.5C 404.91,465.616 406.244,463.95 405.5,460.5C 406.833,460.5 408.167,460.5 409.5,460.5C 409.567,462.401 409.233,464.234 408.5,466C 411.248,467.804 413.748,469.971 416,472.5C 417.246,476.73 416.08,480.064 412.5,482.5C 413.145,483.646 413.978,484.646 415,485.5C 415.907,496.079 411.073,500.079 400.5,497.5C 401.401,501.241 400.068,503.241 396.5,503.5C 396.244,501.208 396.577,499.041 397.5,497C 396.906,496.536 396.239,496.369 395.5,496.5 Z"/></g>
<g><path style="opacity:1" fill="#fd991e" d="M 400.5,470.5 C 407.363,470.474 409.363,473.307 406.5,479C 403.808,479.43 401.141,479.263 398.5,478.5C 398.858,475.733 399.525,473.067 400.5,470.5 Z"/></g>
<g><path style="opacity:1" fill="#fd981b" d="M 395.5,491.5 C 395.5,490.5 395.5,489.5 395.5,488.5C 396.737,482.062 400.07,480.895 405.5,485C 408.167,487.333 408.167,489.667 405.5,492C 402.132,492.543 398.799,492.376 395.5,491.5 Z"/></g>
<g><path style="opacity:1" fill="#c8a704" d="M 595.5,496.5 C 600.833,496.5 606.167,496.5 611.5,496.5C 611.5,498.167 611.5,499.833 611.5,501.5C 606.167,501.5 600.833,501.5 595.5,501.5C 595.5,499.833 595.5,498.167 595.5,496.5 Z"/></g>
<g><path style="opacity:1" fill="#141315" d="M 596.5,497.5 C 600.833,497.5 605.167,497.5 609.5,497.5C 609.5,498.5 609.5,499.5 609.5,500.5C 605.167,500.5 600.833,500.5 596.5,500.5C 596.5,499.5 596.5,498.5 596.5,497.5 Z"/></g>
<g><path style="opacity:1" fill="#a98d0a" d="M 730.5,531.5 C 729.539,533.265 729.205,535.265 729.5,537.5C 728.673,532.349 728.173,527.016 728,521.5C 727.667,521.167 727.333,520.833 727,520.5C 726.012,523.424 725.346,526.424 725,529.5C 724,527.833 723,526.167 722,524.5C 720.352,530.362 719.352,536.362 719,542.5C 716.887,547.284 715.554,552.284 715,557.5C 714.664,564.533 713.998,571.533 713,578.5C 712.667,576.5 712.333,574.5 712,572.5C 711.667,572.833 711.333,573.167 711,573.5C 708.709,570.975 707.376,567.975 707,564.5C 705.436,564.912 703.936,565.245 702.5,565.5C 703.918,563.692 705.918,563.025 708.5,563.5C 708.699,565.96 709.365,568.293 710.5,570.5C 711.251,569.624 711.751,568.624 712,567.5C 713.082,560.512 714.082,553.512 715,546.5C 716.252,544.999 717.252,543.332 718,541.5C 718.333,536.833 718.667,532.167 719,527.5C 719.249,524.823 720.249,522.49 722,520.5C 722.29,522.044 722.956,523.377 724,524.5C 724.868,520.73 726.034,517.064 727.5,513.5C 729.611,519.273 730.611,525.273 730.5,531.5 Z"/></g>
<g><path style="opacity:1" fill="#c9c9cb" d="M 416.5,529.5 C 417.978,529.238 419.311,529.571 420.5,530.5C 418.537,533.194 417.203,532.861 416.5,529.5 Z"/></g>
<g><path style="opacity:1" fill="#e6e6e7" d="M 395.5,541.5 C 395.5,539.167 395.5,536.833 395.5,534.5C 398.502,532.892 401.168,533.225 403.5,535.5C 401.979,535.88 400.313,536.046 398.5,536C 397.62,537.356 397.286,538.856 397.5,540.5C 399.604,540.201 401.604,540.534 403.5,541.5C 400.92,544.063 398.253,544.063 395.5,541.5 Z"/></g>
<g><path style="opacity:1" fill="#f3f3f3" d="M 431.5,535.5 C 431.302,544.208 430.302,544.542 428.5,536.5C 427.652,535.375 426.652,535.375 425.5,536.5C 425.06,538.844 424.06,540.844 422.5,542.5C 422.5,539.5 422.5,536.5 422.5,533.5C 425.187,533.336 427.854,533.503 430.5,534C 431.056,534.383 431.389,534.883 431.5,535.5 Z"/></g>
<g><path style="opacity:1" fill="#ddddde" d="M 407.5,533.5 C 413.168,532.671 415.668,535.005 415,540.5C 411.667,544.5 408.333,544.5 405,540.5C 404.333,539.167 404.333,537.833 405,536.5C 406.045,535.627 406.878,534.627 407.5,533.5 Z"/></g>
<g><path style="opacity:1" fill="#222227" d="M 408.5,535.5 C 412.161,535.35 413.161,536.85 411.5,540C 407.707,540.487 406.707,538.987 408.5,535.5 Z"/></g>
<g><path style="opacity:1" fill="#67676b" d="M 417.5,533.5 C 418.167,545.5 418.833,545.5 419.5,533.5C 420.479,536.625 420.813,539.958 420.5,543.5C 419.167,543.5 417.833,543.5 416.5,543.5C 416.187,539.958 416.521,536.625 417.5,533.5 Z"/></g>
<g><path style="opacity:1" fill="#fafafa" d="M 417.5,533.5 C 418.167,533.5 418.833,533.5 419.5,533.5C 418.833,545.5 418.167,545.5 417.5,533.5 Z"/></g>
<g><path style="opacity:1" fill="#89898c" d="M 425.5,536.5 C 425.5,538.833 425.5,541.167 425.5,543.5C 424.209,543.737 423.209,543.404 422.5,542.5C 424.06,540.844 425.06,538.844 425.5,536.5 Z"/></g>
<g><path style="opacity:1" fill="#68686c" d="M 431.5,535.5 C 432.473,537.948 432.806,540.615 432.5,543.5C 431.167,543.5 429.833,543.5 428.5,543.5C 428.5,541.167 428.5,538.833 428.5,536.5C 430.302,544.542 431.302,544.208 431.5,535.5 Z"/></g>
<g><path style="opacity:1" fill="#d7b302" d="M 730.5,531.5 C 730.5,533.833 730.5,536.167 730.5,538.5C 731.065,540.952 731.732,543.285 732.5,545.5C 732.5,548.833 732.5,552.167 732.5,555.5C 732.5,556.167 732.167,556.5 731.5,556.5C 730.479,550.212 729.812,543.879 729.5,537.5C 729.205,535.265 729.539,533.265 730.5,531.5 Z"/></g>
<g><path style="opacity:1" fill="#39393d" d="M 467.5,637.5 C 466.833,638.833 466.167,638.833 465.5,637.5C 466.167,380.167 466.833,380.167 467.5,637.5 Z"/></g>
<g><path style="opacity:1" fill="#736110" d="M 730.5,538.5 C 732.344,540.279 733.01,542.612 732.5,545.5C 731.732,543.285 731.065,540.952 730.5,538.5 Z"/></g>
<g><path style="opacity:1" fill="#a68b0b" d="M 740.5,553.5 C 741.301,555.042 741.634,556.708 741.5,558.5C 739.599,555.657 738.433,552.324 738,548.5C 735.961,553.675 734.294,559.008 733,564.5C 732.178,561.883 731.678,559.216 731.5,556.5C 732.167,556.5 732.5,556.167 732.5,555.5C 733.314,553.369 733.814,551.036 734,548.5C 734.974,546.122 735.641,546.456 736,549.5C 736.692,546.064 737.692,542.73 739,539.5C 740.225,544.085 740.725,548.752 740.5,553.5 Z"/></g>
<g><path style="opacity:1" fill="#606064" d="M 435.5,559.5 C 439.051,559.426 442.717,559.259 446.5,559C 445.636,560.697 444.303,561.863 442.5,562.5C 440.026,562.447 437.693,561.447 435.5,559.5 Z"/></g>
<g><path style="opacity:1" fill="#606064" d="M 413.5,559.5 C 415.205,558.912 416.872,558.579 418.5,558.5C 419.192,559.025 419.692,559.692 420,560.5C 420.991,559.061 422.324,558.061 424,557.5C 424.775,559.949 423.942,561.616 421.5,562.5C 419.5,562.5 417.5,562.5 415.5,562.5C 414.575,561.643 413.908,560.643 413.5,559.5 Z"/></g>
<g><path style="opacity:1" fill="#6c6c6f" d="M 447.5,559.5 C 450.391,558.754 453.391,558.588 456.5,559C 455.874,559.75 455.374,560.584 455,561.5C 453.192,561.112 451.525,561.112 450,561.5C 449.583,560.244 448.75,559.577 447.5,559.5 Z"/></g>
<g><path style="opacity:1" fill="#56565a" d="M 413.5,559.5 C 412.25,559.577 411.417,560.244 411,561.5C 410.692,560.692 410.192,560.025 409.5,559.5C 408.449,560.885 407.116,561.885 405.5,562.5C 404.167,561.167 402.833,561.167 401.5,562.5C 400.167,561.167 400.167,559.833 401.5,558.5C 402.541,560.991 403.374,560.991 404,558.5C 404.333,559.167 404.667,559.833 405,560.5C 406.18,559.316 407.68,558.649 409.5,558.5C 411.045,558.511 412.378,558.844 413.5,559.5 Z"/></g>
<g><path style="opacity:1" fill="#5f5f63" d="M 419.5,568.5 C 423.901,569.411 428.234,569.578 432.5,569C 431.809,570.067 431.309,571.234 431,572.5C 430.374,570.009 429.541,570.009 428.5,572.5C 426.722,572.431 424.889,572.097 423,571.5C 419.836,574.145 418.669,573.145 419.5,568.5 Z"/></g>
<g><path style="opacity:1" fill="#4e4e53" d="M 402.5,568.5 C 404.5,569.626 406.5,569.793 408.5,569C 407.663,570.011 407.33,571.178 407.5,572.5C 405.833,572.5 404.167,572.5 402.5,572.5C 402.5,571.167 402.5,569.833 402.5,568.5 Z"/></g>
<g><path style="opacity:1" fill="#59595d" d="M 443.5,568.5 C 448.087,568.915 452.42,569.081 456.5,569C 455.809,570.067 455.309,571.234 455,572.5C 454.374,570.009 453.541,570.009 452.5,572.5C 450.722,572.431 448.889,572.097 447,571.5C 443.836,574.145 442.669,573.145 443.5,568.5 Z"/></g>
<g><path style="opacity:1" fill="#59595d" d="M 435.5,568.5 C 436.268,569.263 436.768,570.263 437,571.5C 438.253,567.956 440.087,567.623 442.5,570.5C 440.49,572.171 438.157,572.838 435.5,572.5C 435.5,571.167 435.5,569.833 435.5,568.5 Z"/></g>
<g><path style="opacity:1" fill="#b89a06" d="M 702.5,565.5 C 702.335,567.827 701.669,569.993 700.5,572C 698.843,572.725 697.843,572.225 697.5,570.5C 698.5,570.5 699.5,570.5 700.5,570.5C 700.12,568.302 700.787,566.635 702.5,565.5 Z"/></g>
<g><path style="opacity:1" fill="#b19508" d="M 613.5,576.5 C 612.71,575.391 612.21,574.058 612,572.5C 611.692,573.308 611.192,573.975 610.5,574.5C 609.264,573.754 607.93,573.421 606.5,573.5C 605.384,576.556 603.884,579.556 602,582.5C 598.183,579.87 596.183,576.203 596,571.5C 595.333,572.833 594.667,574.167 594,575.5C 593.667,574.833 593.333,574.167 593,573.5C 591.58,575.422 589.747,576.755 587.5,577.5C 586.846,579.115 586.346,580.782 586,582.5C 584.414,580.33 583.08,577.996 582,575.5C 581.983,582.345 580.316,588.678 577,594.5C 575.846,593.257 574.512,592.257 573,591.5C 571.589,593.65 570.755,595.984 570.5,598.5C 568.856,598.714 567.356,598.38 566,597.5C 565.71,595.048 565.044,592.715 564,590.5C 563.667,591.167 563.333,591.833 563,592.5C 562.107,591.289 561.274,591.289 560.5,592.5C 558.796,595.715 557.296,599.049 556,602.5C 555.71,600.048 555.044,597.715 554,595.5C 552.013,594.782 550.179,593.782 548.5,592.5C 547.738,593.628 547.071,594.795 546.5,596C 545.175,595.852 544.008,596.018 543,596.5C 542.64,598.608 541.973,600.608 541,602.5C 540.333,601.167 539.667,601.167 539,602.5C 538.072,599.011 536.406,596.011 534,593.5C 532.731,594.905 532.231,596.571 532.5,598.5C 530.833,598.5 529.167,598.5 527.5,598.5C 527.938,595.107 527.105,592.107 525,589.5C 524.374,591.991 523.541,591.991 522.5,589.5C 521.743,592.37 520.743,595.036 519.5,597.5C 519.338,592.818 520.505,588.485 523,584.5C 524.727,586.077 526.394,588.41 528,591.5C 528.494,593.134 528.66,594.801 528.5,596.5C 529.5,596.5 530.5,596.5 531.5,596.5C 531.523,594.073 532.023,591.74 533,589.5C 534.779,592.276 535.779,591.943 536,588.5C 536.956,592.245 538.123,595.911 539.5,599.5C 540.711,597.578 542.044,595.745 543.5,594C 544.449,593.383 545.282,593.549 546,594.5C 546.175,590.789 546.675,587.122 547.5,583.5C 548.037,587.32 549.537,590.654 552,593.5C 554.557,592.354 555.89,593.354 556,596.5C 557.614,593.051 560.114,590.385 563.5,588.5C 565.553,589.939 566.553,591.939 566.5,594.5C 567.833,594.5 569.167,594.5 570.5,594.5C 570.523,592.073 571.023,589.74 572,587.5C 572.915,588.328 573.581,589.328 574,590.5C 574.333,589.833 574.667,589.167 575,588.5C 575.928,590.335 577.094,590.668 578.5,589.5C 579.292,581.827 580.125,574.161 581,566.5C 582.834,569.601 584.168,573.601 585,578.5C 585.635,577.034 586.469,575.7 587.5,574.5C 590.935,573.457 593.602,571.457 595.5,568.5C 597.352,571.355 598.686,574.522 599.5,578C 603.471,577.871 605.805,575.704 606.5,571.5C 607.086,571.709 607.586,572.043 608,572.5C 612.922,567.18 614.755,568.514 613.5,576.5 Z"/></g>
<g><path style="opacity:1" fill="#b59807" d="M 618.5,578.5 C 617.198,577.193 615.865,577.193 614.5,578.5C 613.702,578.043 613.369,577.376 613.5,576.5C 615.411,576.426 616.578,575.426 617,573.5C 618.009,575.025 618.509,576.692 618.5,578.5 Z"/></g>
<g><path style="opacity:1" fill="#68686b" d="M 395.5,580.5 C 395.5,580.167 395.5,579.833 395.5,579.5C 396.833,579.5 398.167,579.5 399.5,579.5C 399.5,580.5 399.5,581.5 399.5,582.5C 397.801,582.473 396.467,581.806 395.5,580.5 Z"/></g>
<g><path style="opacity:1" fill="#6c6c6f" d="M 419.5,579.5 C 421.5,579.5 423.5,579.5 425.5,579.5C 425.5,580.5 425.5,581.5 425.5,582.5C 423.857,582.52 422.524,581.853 421.5,580.5C 419.995,583.131 419.329,582.797 419.5,579.5 Z"/></g>
<g><path style="opacity:1" fill="#5c5c60" d="M 409.5,579.5 C 411.477,580.149 413.31,580.149 415,579.5C 418.082,580.509 418.082,581.842 415,583.5C 413.324,582.939 411.991,581.939 411,580.5C 409.913,582.932 409.413,582.598 409.5,579.5 Z"/></g>
<g><path style="opacity:1" fill="#6e6e72" d="M 453.5,578.5 C 456.126,580.264 455.959,581.597 453,582.5C 452.055,582.095 451.388,581.428 451,580.5C 448.667,583.167 446.333,583.167 444,580.5C 442.913,582.932 442.413,582.598 442.5,579.5C 444.124,579.36 445.29,580.027 446,581.5C 446.308,580.692 446.808,580.025 447.5,579.5C 449.278,579.569 451.111,579.903 453,580.5C 453.464,579.906 453.631,579.239 453.5,578.5 Z"/></g>
<g><path style="opacity:1" fill="#b09308" d="M 697.5,570.5 C 696.778,570.082 696.278,569.416 696,568.5C 695.002,571.337 693.002,573.003 690,573.5C 689.29,572.027 688.124,571.36 686.5,571.5C 686.804,575.425 685.637,578.758 683,581.5C 681.441,580.971 679.941,580.304 678.5,579.5C 675.417,582.099 672.084,582.765 668.5,581.5C 668.367,584.896 667.367,585.229 665.5,582.5C 663.604,585.336 661.104,587.336 658,588.5C 658.094,591.501 656.761,593.501 654,594.5C 652.251,593.701 650.918,594.368 650,596.5C 645.459,594.63 642.792,591.296 642,586.5C 639.769,589.281 637.769,592.281 636,595.5C 633.217,591.985 631.717,587.985 631.5,583.5C 629.201,582.862 627.034,581.862 625,580.5C 621.577,583.652 619.41,582.985 618.5,578.5C 622.842,578.157 627.175,578.99 631.5,581C 632.63,585.002 634.13,588.836 636,592.5C 638.245,589.437 640.079,586.103 641.5,582.5C 643.546,585.633 645.212,588.966 646.5,592.5C 647.736,593.246 649.07,593.579 650.5,593.5C 649.67,587.509 651.17,586.842 655,591.5C 655.36,589.579 656.194,587.912 657.5,586.5C 658.274,585.289 659.107,585.289 660,586.5C 661.68,584.651 663.18,582.651 664.5,580.5C 667.051,580.063 669.718,580.063 672.5,580.5C 675.136,579.029 677.636,577.363 680,575.5C 680.026,578.105 681.193,579.271 683.5,579C 684.56,576.263 685.394,573.43 686,570.5C 688.405,570.036 690.905,569.869 693.5,570C 695.531,562.533 696.864,562.7 697.5,570.5 Z"/></g>
<g><path style="opacity:1" fill="#57575b" d="M 400.5,578.5 C 402.352,579.089 404.185,579.756 406,580.5C 406.333,580.167 406.667,579.833 407,579.5C 406.956,581.279 406.289,582.945 405,584.5C 404.779,581.057 403.779,580.724 402,583.5C 400.731,582.095 400.231,580.429 400.5,578.5 Z"/></g>
<g><path style="opacity:1" fill="#4f4f54" d="M 430.5,578.5 C 431.268,579.263 431.768,580.263 432,581.5C 433.401,579.808 435.234,579.141 437.5,579.5C 437.5,580.5 437.5,581.5 437.5,582.5C 435.876,582.64 434.71,581.973 434,580.5C 433.517,581.448 433.351,582.448 433.5,583.5C 432.5,583.5 431.5,583.5 430.5,583.5C 430.5,581.833 430.5,580.167 430.5,578.5 Z"/></g>
<g><path style="opacity:1" fill="#515055" d="M 415.5,588.5 C 416.613,589.946 416.78,591.613 416,593.5C 415.259,592.359 414.425,592.359 413.5,593.5C 409.777,591.845 409.777,590.511 413.5,589.5C 414.944,590.981 415.611,590.648 415.5,588.5 Z"/></g>
<g><path style="opacity:1" fill="#59595d" d="M 426.5,588.5 C 427.451,589.919 427.784,591.585 427.5,593.5C 425.167,592.167 422.833,592.167 420.5,593.5C 420.105,590.477 421.105,589.477 423.5,590.5C 424.739,590.058 425.739,589.391 426.5,588.5 Z"/></g>
<g><path style="opacity:1" fill="#68686b" d="M 436.5,589.5 C 437.5,589.5 438.5,589.5 439.5,589.5C 439.543,593.893 439.043,594.226 438,590.5C 436.957,594.226 436.457,593.893 436.5,589.5 Z"/></g>
<g><path style="opacity:1" fill="#6d6d70" d="M 449.5,588.5 C 451.703,589.052 452.536,590.385 452,592.5C 450.913,590.068 450.413,590.402 450.5,593.5C 449.5,593.5 448.5,593.5 447.5,593.5C 447.457,589.107 447.957,588.774 449,592.5C 449.49,591.207 449.657,589.873 449.5,588.5 Z"/></g>
<g><path style="opacity:1" fill="#6d6d71" d="M 399.5,600.5 C 400.222,600.918 400.722,601.584 401,602.5C 401.556,600.405 402.056,600.238 402.5,602C 400.042,605.529 399.042,605.029 399.5,600.5 Z"/></g>
<g><path style="opacity:1" fill="#545459" d="M 440.5,599.5 C 441.598,600.601 441.765,601.934 441,603.5C 439.701,603.034 438.201,603.034 436.5,603.5C 436.5,602.5 436.5,601.5 436.5,600.5C 438.099,600.768 439.432,600.434 440.5,599.5 Z"/></g>
<g><path style="opacity:1" fill="#636367" d="M 454.5,599.5 C 456.104,600.287 456.771,601.62 456.5,603.5C 454.833,603.5 453.167,603.5 451.5,603.5C 451.351,602.448 451.517,601.448 452,600.5C 453.159,601.566 453.992,601.233 454.5,599.5 Z"/></g>
<g><path style="opacity:1" fill="#6b6b6e" d="M 411.5,599.5 C 412.434,600.568 412.768,601.901 412.5,603.5C 410.167,602.167 407.833,602.167 405.5,603.5C 405.413,600.402 405.913,600.068 407,602.5C 407.317,600.699 407.984,600.366 409,601.5C 409.995,600.934 410.828,600.267 411.5,599.5 Z"/></g>
<g><path style="opacity:1" fill="#6b6b6f" d="M 413.5,600.5 C 414.222,600.918 414.722,601.584 415,602.5C 415.451,600.071 416.285,599.904 417.5,602C 416.437,603.188 415.103,603.688 413.5,603.5C 413.5,602.5 413.5,601.5 413.5,600.5 Z"/></g>
<g><path style="opacity:1" fill="#434348" d="M 422.5,598.5 C 424.335,599.122 425.502,600.456 426,602.5C 426.991,601.061 428.324,600.061 430,599.5C 431.365,600.593 431.699,601.926 431,603.5C 430.667,602.833 430.333,602.167 430,601.5C 427.196,603.344 424.03,604.011 420.5,603.5C 420.365,601.446 421.032,599.779 422.5,598.5 Z"/></g>
<g><path style="opacity:1" fill="#b29508" d="M 505.5,587.5 C 507.448,594.065 509.282,600.732 511,607.5C 511.197,602.822 512.197,602.488 514,606.5C 514.29,604.048 514.956,601.715 516,599.5C 516.333,599.833 516.667,600.167 517,600.5C 517.377,599.058 518.21,598.058 519.5,597.5C 517.065,602.915 514.398,608.249 511.5,613.5C 510.548,611.955 510.215,610.288 510.5,608.5C 509.5,608.5 508.5,608.5 507.5,608.5C 507.659,601.41 506.993,594.41 505.5,587.5 Z"/></g>
<g><path style="opacity:1" fill="#1a1a1f" d="M 741.5,631.5 C 741.936,634.364 741.103,636.697 739,638.5C 727.492,637.356 715.825,637.356 704,638.5C 700.968,638.233 698.301,637.233 696,635.5C 695.667,636.5 695.333,637.5 695,638.5C 668.879,637.75 642.712,637.416 616.5,637.5C 616.856,636.13 617.69,635.13 619,634.5C 620.162,635.187 621.328,635.353 622.5,635C 619.937,632.474 620.603,630.807 624.5,630C 624.167,629.667 623.833,629.333 623.5,629C 625.439,628.092 626.439,626.592 626.5,624.5C 629.394,624.042 631.894,624.709 634,626.5C 636.749,623.887 639.582,623.887 642.5,626.5C 645.5,623.833 648.5,623.833 651.5,626.5C 654.418,623.887 657.251,623.887 660,626.5C 662.803,623.898 665.636,623.898 668.5,626.5C 671.418,623.887 674.251,623.887 677,626.5C 679.958,623.918 682.958,623.918 686,626.5C 688.667,623.833 691.333,623.833 694,626.5C 696.749,623.887 699.582,623.887 702.5,626.5C 704.425,623.828 707.092,622.828 710.5,623.5C 711.167,627.5 711.833,627.5 712.5,623.5C 714.5,623.5 716.5,623.5 718.5,623.5C 719.167,627.5 719.833,627.5 720.5,623.5C 722.527,623.338 724.527,623.505 726.5,624C 728.422,627.346 729.089,627.346 728.5,624C 730.833,623.333 733.167,623.333 735.5,624C 736.874,627.41 737.541,627.243 737.5,623.5C 738.5,623.5 739.5,623.5 740.5,623.5C 740.194,626.385 740.527,629.052 741.5,631.5 Z"/></g>
<g><path style="opacity:1" fill="#19191a" d="M 391.5,418.5 C 391.5,492.833 391.5,567.167 391.5,641.5C 509.167,641.5 626.833,641.5 744.5,641.5C 744.19,644.713 744.523,647.713 745.5,650.5C 696.67,651.499 647.67,651.832 598.5,651.5C 578.5,651.5 558.5,651.5 538.5,651.5C 494.833,651.5 451.167,651.5 407.5,651.5C 401.833,651.5 396.167,651.5 390.5,651.5C 390.167,573.665 390.501,495.998 391.5,418.5 Z"/></g>
<g><path style="opacity:1" fill="#c3c5c5" d="M 745.5,419.5 C 746.499,496.665 746.833,573.998 746.5,651.5C 749.167,651.5 751.833,651.5 754.5,651.5C 755.263,652.268 756.263,652.768 757.5,653C 756.5,653.333 755.5,653.667 754.5,654C 755.336,655.243 755.003,656.41 753.5,657.5C 749.889,658.262 746.222,658.762 742.5,659C 630.167,659.667 517.833,659.667 405.5,659C 403.167,658.667 400.833,658.333 398.5,658C 397.061,657.009 396.061,655.676 395.5,654C 399.573,652.971 403.573,652.138 407.5,651.5C 451.167,651.5 494.833,651.5 538.5,651.5C 538.286,653.144 538.62,654.644 539.5,656C 558.833,656.667 578.167,656.667 597.5,656C 598.38,654.644 598.714,653.144 598.5,651.5C 647.67,651.832 696.67,651.499 745.5,650.5C 745.5,573.5 745.5,496.5 745.5,419.5 Z"/></g>
<g><path style="opacity:1" fill="#868889" d="M 355.5,651.5 C 355.335,654.85 355.502,658.183 356,661.5C 357.965,662.885 359.798,662.718 361.5,661C 499.166,660.5 636.833,660.333 774.5,660.5C 774.5,661.5 774.5,662.5 774.5,663.5C 637.166,663.333 499.833,663.5 362.5,664C 361.944,664.383 361.611,664.883 361.5,665.5C 360.5,665.5 359.5,665.5 358.5,665.5C 355.909,664.746 354.076,663.079 353,660.5C 352.502,657.518 352.335,654.518 352.5,651.5C 353.5,651.5 354.5,651.5 355.5,651.5 Z"/></g>
<g><path style="opacity:1" fill="#acadae" d="M 355.5,651.5 C 356.319,654.305 356.819,657.305 357,660.5C 357.414,660.957 357.914,661.291 358.5,661.5C 359.487,658.232 359.82,654.898 359.5,651.5C 369.833,651.5 380.167,651.5 390.5,651.5C 396.167,651.5 401.833,651.5 407.5,651.5C 403.573,652.138 399.573,652.971 395.5,654C 396.061,655.676 397.061,657.009 398.5,658C 400.833,658.333 403.167,658.667 405.5,659C 517.833,659.667 630.167,659.667 742.5,659C 746.222,658.762 749.889,658.262 753.5,657.5C 755.003,656.41 755.336,655.243 754.5,654C 755.5,653.667 756.5,653.333 757.5,653C 756.263,652.768 755.263,652.268 754.5,651.5C 764.167,651.5 773.833,651.5 783.5,651.5C 783.665,655.182 783.499,658.848 783,662.5C 781.736,664.607 779.903,665.607 777.5,665.5C 638.821,664.168 500.154,664.168 361.5,665.5C 361.611,664.883 361.944,664.383 362.5,664C 499.833,663.5 637.166,663.333 774.5,663.5C 774.5,662.5 774.5,661.5 774.5,660.5C 636.833,660.333 499.166,660.5 361.5,661C 359.798,662.718 357.965,662.885 356,661.5C 355.502,658.183 355.335,654.85 355.5,651.5 Z"/></g>
<g><path style="opacity:1" fill="#ededed" d="M 538.5,651.5 C 558.5,651.5 578.5,651.5 598.5,651.5C 598.714,653.144 598.38,654.644 597.5,656C 578.167,656.667 558.833,656.667 539.5,656C 538.62,654.644 538.286,653.144 538.5,651.5 Z"/></g>
<g><path style="opacity:1" fill="#b9baba" d="M 777.5,665.5 C 770.933,666.201 764.267,666.868 757.5,667.5C 750.167,666.167 742.833,666.167 735.5,667.5C 624.167,666.167 512.833,666.167 401.5,667.5C 394.167,666.167 386.833,666.167 379.5,667.5C 372.4,666.866 365.4,666.199 358.5,665.5C 359.5,665.5 360.5,665.5 361.5,665.5C 500.154,664.168 638.821,664.168 777.5,665.5 Z"/></g>
<g><path style="opacity:1" fill="#959596" d="M 401.5,667.5 C 394.167,668.833 386.833,668.833 379.5,667.5C 386.833,666.167 394.167,666.167 401.5,667.5 Z"/></g>
<g><path style="opacity:1" fill="#979797" d="M 757.5,667.5 C 750.167,668.833 742.833,668.833 735.5,667.5C 742.833,666.167 750.167,666.167 757.5,667.5 Z"/></g>
</svg>
